#!OML:ASF H:\Male1\Project 1\Capture day 1\Session 1\Male1.ASF
:FULLY-SPECIFIED
:DEGREES
494
root 16.2757 15.4244 -0.775826 177.466 -78.3461 -179.977
lowerback 7.63168 1.68367 0.293801
upperback 0.425559 2.22189 -0.635659
thorax -3.8004 1.08413 -1.06061
lowerneck -9.02004 4.88781 9.48074
upperneck 16.0123 7.43887 -14.508
head 7.27821 2.87421 -5.67896
rclavicle -1.35795e-014 4.57205e-015
rhumerus 13.4956 -45.4047 -17.0106
rradius 36.1394
rwrist -38.8266
rhand -40.2092 -14.2414
rfingers 7.12502
rthumb -13.1694 -43.8055
lclavicle -1.35795e-014 4.57205e-015
lhumerus 10.3092 62.4151 9.15223
lradius 25.5594
lwrist 7.37243
lhand -37.3327 42.8041
lfingers 7.12502
lthumb -10.3956 72.5271
rfemur 0.688075 16.8282 24.291
rtibia 21.6478
rfoot -32.1617 -30.8593
rtoes -13.4641
lfemur 3.29505 -16.9459 -22.7679
ltibia 20.9364
lfoot -29.3209 31.122
ltoes 4.1501
495
root 16.283 15.424 -0.772987 176.96 -78.3944 -179.536
lowerback 7.52293 1.64979 0.455566
upperback 0.41556 2.19486 -0.558059
thorax -3.74732 1.06946 -1.06474
lowerneck -8.87856 4.91685 9.47263
upperneck 16.2555 7.52197 -14.6112
head 7.34541 2.89934 -5.71289
rclavicle -7.30534e-015 1.59028e-015
rhumerus 15.8668 -43.9786 -16.9349
rradius 38.2442
rwrist -39.6529
rhand -40.4759 -12.5649
rfingers 7.12502
rthumb -13.4265 -42.1122
lclavicle -7.30534e-015 1.59028e-015
lhumerus 12.7931 60.003 9.92662
lradius 26.5098
lwrist 7.83338
lhand -37.928 41.6012
lfingers 7.12502
lthumb -10.9698 71.2946
rfemur 0.793345 16.8441 24.4046
rtibia 21.5563
rfoot -32.1021 -30.9288
rtoes -13.5197
lfemur 3.26309 -16.9471 -22.6837
ltibia 21.0688
lfoot -29.3477 31.0704
ltoes 4.20453
496
root 16.2906 15.4233 -0.770516 176.81 -78.4504 -179.459
lowerback 7.39263 1.61715 0.542496
upperback 0.415876 2.16134 -0.50523
thorax -3.67351 1.05271 -1.05104
lowerneck -8.77261 4.96766 9.45531
upperneck 16.5354 7.63544 -14.6969
head 7.43423 2.93702 -5.73661
rclavicle 3.1262e-014 -4.57205e-015
rhumerus 18.2545 -42.5858 -16.8264
rradius 40.5377
rwrist -40.3345
rhand -40.703 -10.8096
rfingers 7.12502
rthumb -13.6454 -40.3423
lclavicle 3.1262e-014 -4.57205e-015
lhumerus 15.1706 57.505 10.4443
lradius 27.6266
lwrist 8.33148
lhand -38.5186 40.3753
lfingers 7.12502
lthumb -11.5394 70.0376
rfemur 0.865606 16.8575 24.4404
rtibia 21.5374
rfoot -32.108 -30.9761
rtoes -13.5427
lfemur 3.27487 -16.9781 -22.6875
ltibia 21.1272
lfoot -29.362 31.0425
ltoes 4.26918
497
root 16.2984 15.4223 -0.768533 177.05 -78.5145 -179.785
lowerback 7.24807 1.58952 0.551212
upperback 0.425512 2.12608 -0.486096
thorax -3.58371 1.03613 -1.02761
lowerneck -8.707 5.0337 9.43475
upperneck 16.8576 7.76728 -14.7499
head 7.54556 2.9829 -5.74718
rclavicle -1.63904e-014 -2.28602e-015
rhumerus 20.5867 -41.2053 -16.669
rradius 43.0114
rwrist -40.8401
rhand -40.872 -8.9309
rfingers 7.12502
rthumb -13.8082 -38.4526
lclavicle -1.63904e-014 -2.28602e-015
lhumerus 17.4239 54.9194 10.7049
lradius 28.9328
lwrist 8.95803
lhand -39.0848 39.1675
lfingers 7.12502
lthumb -12.0854 68.7985
rfemur 0.911238 16.8674 24.3925
rtibia 21.5884
rfoot -32.1712 -31.0024
rtoes -13.5133
lfemur 3.33213 -17.0207 -22.7834
ltibia 21.1146
lfoot -29.3433 31.0335
ltoes 4.29146
498
root 16.3063 15.4211 -0.766999 177.573 -78.5843 -180.407
lowerback 7.09538 1.56899 0.504995
upperback 0.443695 2.09441 -0.496925
thorax -3.48128 1.02197 -1.0044
lowerneck -8.68031 5.10933 9.41629
upperneck 17.2113 7.90746 -14.7667
head 7.67449 3.0334 -5.74496
rclavicle 1.10046e-014 -2.78299e-015
rhumerus 22.8029 -39.8211 -16.4413
rradius 45.6527
rwrist -41.1359
rhand -40.9045 -7.00137
rfingers 7.12502
rthumb -13.8396 -36.5209
lclavicle 1.10046e-014 -2.78299e-015
lhumerus 19.541 52.2586 10.7213
lradius 30.4508
lwrist 9.74835
lhand -39.6836 37.9741
lfingers 7.12502
lthumb -12.6628 67.5702
rfemur 0.939775 16.8685 24.2844
rtibia 21.69
rfoot -32.2649 -31.013
rtoes -13.4423
lfemur 3.42262 -17.0616 -22.9426
ltibia 21.0508
lfoot -29.2844 31.0393
ltoes 4.24365
499
root 16.3145 15.4198 -0.765889 178.173 -78.6569 -181.112
lowerback 6.94047 1.55457 0.438354
upperback 0.468386 2.06882 -0.520997
thorax -3.37098 1.01097 -0.983942
lowerneck -8.6733 5.18564 9.39884
upperneck 17.5624 8.04309 -14.7564
head 7.80502 3.08351 -5.73363
rclavicle 2.18756e-014 -6.55989e-015
rhumerus 24.9061 -38.4634 -16.1824
rradius 48.4366
rwrist -41.1804
rhand -40.7261 -5.04579
rfingers 7.12502
rthumb -13.6676 -34.577
lclavicle 2.18756e-014 -6.55989e-015
lhumerus 21.5121 49.5585 10.5232
lradius 32.1902
lwrist 10.6356
lhand -40.3048 36.7795
lfingers 7.12502
lthumb -13.2616 66.3376
rfemur 0.961257 16.8577 24.1612
rtibia 21.8109
rfoot -32.3629 -31.0189
rtoes -13.3596
lfemur 3.52396 -17.0903 -23.1128
ltibia 20.9675
lfoot -29.1919 31.0473
ltoes 4.13602
500
root 16.3237 15.4186 -0.765268 178.649 -78.7325 -181.697
lowerback 6.79881 1.54294 0.378172
upperback 0.49565 2.04793 -0.538203
thorax -3.26537 1.00211 -0.960941
lowerneck -8.67415 5.26188 9.37984
upperneck 17.8838 8.1735 -14.7298
head 7.92633 3.13328 -5.71589
rclavicle 3.29113e-014 -6.65929e-015
rhumerus 26.9413 -37.1607 -15.9644
rradius 51.3191
rwrist -40.9158
rhand -40.3542 -2.96443
rfingers 7.12502
rthumb -13.3092 -32.5194
lclavicle 3.29113e-014 -6.65929e-015
lhumerus 23.33 46.8606 10.145
lradius 34.1509
lwrist 11.5088
lhand -41.0075 35.4716
lfingers 7.12502
lthumb -13.9388 64.9844
rfemur 0.991638 16.8374 24.068
rtibia 21.9165
rfoot -32.448 -31.0329
rtoes -13.2925
lfemur 3.6163 -17.1078 -23.248
ltibia 20.8997
lfoot -29.0853 31.046
ltoes 4.00699
501
root 16.3341 15.4175 -0.765221 178.87 -78.81 -182.032
lowerback 6.68649 1.53218 0.340453
upperback 0.522615 2.03078 -0.536147
thorax -3.17634 0.994736 -0.932037
lowerneck -8.67612 5.33313 9.34593
upperneck 18.1607 8.29255 -14.6857
head 8.03071 3.1798 -5.68925
rclavicle 8.12998e-015 1.19271e-015
rhumerus 28.9237 -35.9081 -15.8238
rradius 54.2515
rwrist -40.2848
rhand -39.8221 -0.811022
rfingers 7.12502
rthumb -12.7963 -30.3988
lclavicle 8.12998e-015 1.19271e-015
lhumerus 24.9921 44.2029 9.61903
lradius 36.3273
lwrist 12.2247
lhand -41.7508 34.0237
lfingers 7.12502
lthumb -14.655 63.4859
rfemur 1.0446 16.8112 24.0341
rtibia 21.9835
rfoot -32.5143 -31.0601
rtoes -13.2403
lfemur 3.68949 -17.1151 -23.3211
ltibia 20.8711
lfoot -28.9801 31.0278
ltoes 3.88714
502
root 16.3456 15.4165 -0.765758 178.798 -78.8896 -182.075
lowerback 6.6085 1.52114 0.329774
upperback 0.546542 2.01606 -0.513257
thorax -3.10944 0.988154 -0.898237
lowerneck -8.67705 5.40061 9.31336
upperneck 18.3902 8.40164 -14.6369
head 8.11799 3.22403 -5.66084
rclavicle -2.55407e-014 4.07509e-015
rhumerus 30.8405 -34.6858 -15.765
rradius 57.2003
rwrist -39.2712
rhand -39.2709 1.55429
rfingers 7.12502
rthumb -12.2649 -28.066
lclavicle -2.55407e-014 4.07509e-015
lhumerus 26.5236 41.6342 9.00327
lradius 38.7095
lwrist 12.6352
lhand -42.3789 32.2052
lfingers 7.12502
lthumb -15.2602 61.6223
rfemur 1.12069 16.7842 24.0679
rtibia 22.0073
rfoot -32.5601 -31.11
rtoes -13.2064
lfemur 3.74081 -17.1188 -23.3255
ltibia 20.8857
lfoot -28.8842 30.9948
ltoes 3.7908
503
root 16.358 15.4159 -0.766601 178.568 -78.976 -181.952
lowerback 6.55017 1.50549 0.324643
upperback 0.566796 1.99601 -0.478761
thorax -3.05763 0.978808 -0.855842
lowerneck -8.69011 5.4635 9.29486
upperneck 18.5865 8.50038 -14.5951
head 8.19626 3.26468 -5.63722
rclavicle -1.56574e-014 6.36111e-015
rhumerus 32.685 -33.4788 -15.7776
rradius 60.1371
rwrist -37.9699
rhand -38.7262 4.17468
rfingers 7.12502
rthumb -11.7397 -25.4763
lclavicle -1.56574e-014 6.36111e-015
lhumerus 27.9352 39.1864 8.33496
lradius 41.2827
lwrist 12.6741
lhand -42.7628 29.8831
lfingers 7.12502
lthumb -15.6299 59.2717
rfemur 1.20165 16.7475 24.1354
rtibia 22.0016
rfoot -32.5825 -31.18
rtoes -13.2127
lfemur 3.76669 -17.127 -23.2886
ltibia 20.9268
lfoot -28.7838 30.9611
ltoes 3.68363
504
root 16.3705 15.4158 -0.767333 178.38 -79.0668 -181.855
lowerback 6.48988 1.48546 0.297895
upperback 0.582695 1.96848 -0.447656
thorax -3.00993 0.965952 -0.804246
lowerneck -8.72573 5.52106 9.29454
upperneck 18.766 8.58764 -14.5582
head 8.2728 3.30077 -5.61883
rclavicle -1.04424e-014 0
rhumerus 34.4239 -32.2525 -15.8098
rradius 63.0392
rwrist -36.4696
rhand -38.1444 7.16536
rfingers 7.12502
rthumb -11.1786 -22.5169
lclavicle -1.04424e-014 0
lhumerus 29.2231 36.857 7.61527
lradius 44.0198
lwrist 12.3648
lhand -43.0072 27.1631
lfingers 7.12502
lthumb -15.8653 56.5332
rfemur 1.26422 16.6863 24.1851
rtibia 21.9905
rfoot -32.5866 -31.2429
rtoes -13.2512
lfemur 3.7715 -17.133 -23.2506
ltibia 20.9659
lfoot -28.6578 30.9364
ltoes 3.51013
505
root 16.3826 15.416 -0.767607 178.416 -79.1529 -181.965
lowerback 6.41348 1.46846 0.228719
upperback 0.594329 1.94135 -0.43624
thorax -2.95829 0.953707 -0.74886
lowerneck -8.76873 5.57234 9.31911
upperneck 18.93 8.66044 -14.5191
head 8.34473 3.33268 -5.60494
rclavicle 9.85149e-015 -3.8763e-015
rhumerus 36.0149 -30.9917 -15.8086
rradius 65.8859
rwrist -34.8669
rhand -37.5954 10.4016
rfingers 7.12502
rthumb -10.649 -19.3086
lclavicle 9.85149e-015 -3.8763e-015
lhumerus 30.4117 34.6378 6.85371
lradius 46.8721
lwrist 11.7635
lhand -43.1491 23.9152
lfingers 7.12502
lthumb -16.0019 53.2743
rfemur 1.29716 16.5993 24.1751
rtibia 21.9936
rfoot -32.5803 -31.2745
rtoes -13.3118
lfemur 3.771 -17.1357 -23.2539
ltibia 20.9789
lfoot -28.5085 30.9275
ltoes 3.2728
506
root 16.3942 15.4166 -0.767274 178.76 -79.2289 -182.369
lowerback 6.31015 1.46125 0.111518
upperback 0.605438 1.92313 -0.453027
thorax -2.89257 0.946319 -0.695663
lowerneck -8.80136 5.61109 9.36359
upperneck 19.0722 8.70933 -14.4697
head 8.40465 3.35728 -5.59306
rclavicle -1.36354e-014 -1.09332e-015
rhumerus 37.4228 -29.7086 -15.7355
rradius 68.6594
rwrist -33.2395
rhand -37.0375 13.7649
rfingers 7.12502
rthumb -10.1108 -15.9722
lclavicle -1.36354e-014 -1.09332e-015
lhumerus 31.5475 32.5445 6.09096
lradius 49.778
lwrist 10.9558
lhand -43.3816 20.2698
lfingers 7.12502
lthumb -16.2258 49.6108
rfemur 1.29814 16.5004 24.0895
rtibia 22.0176
rfoot -32.581 -31.2699
rtoes -13.3682
lfemur 3.77447 -17.147 -23.321
ltibia 20.9561
lfoot -28.351 30.9412
ltoes 3.02522
